<svg xmlns="http://www.w3.org/2000/svg" width="40" height="40" viewBox="0 0 40 40" fill="var(--themes-main-color)">
<style>
<symbol id="floppy2">
  <rect x="0.5" y="0.5" width="3" height="3" />
  <rect x="0.5" y="3.5" width="3" height="3" />
  <rect x="0.5" y="6.5" width="3" height="3" />
  <rect x="0.5" y="9.5" width="3" height="3" />
  <rect x="0.5" y="12.5" width="3" height="3" />
  <rect x="0.5" y="15.5" width="3" height="3" />
  <rect x="0.5" y="18.5" width="3" height="3" />
  <rect x="0.5" y="21.5" width="3" height="3" />
  <rect x="0.5" y="24.5" width="3" height="3" />
  <rect x="0.5" y="27.5" width="3" height="3" />
  <rect x="0.5" y="30.5" width="3" height="3" />
  <rect x="0.5" y="33.5" width="3" height="3" />
  <rect x="0.5" y="36.5" width="3" height="3" />
  <rect x="33.5" y="0.5" width="3" height="3" transform="rotate(90 33.5 0.5)" />
  <rect x="30.5" y="0.5" width="3" height="3" transform="rotate(90 30.5 0.5)" />
  <rect x="27.5" y="0.5" width="3" height="3" transform="rotate(90 27.5 0.5)" />
  <rect x="24.5" y="0.5" width="3" height="3" transform="rotate(90 24.5 0.5)" />
  <rect x="21.5" y="0.5" width="3" height="3" transform="rotate(90 21.5 0.5)" />
  <rect x="18.5" y="0.5" width="3" height="3" transform="rotate(90 18.5 0.5)" />
  <rect x="15.5" y="0.5" width="3" height="3" transform="rotate(90 15.5 0.5)" />
  <rect x="12.5" y="0.5" width="3" height="3" transform="rotate(90 12.5 0.5)" />
  <rect x="9.5" y="0.5" width="3" height="3" transform="rotate(90 9.5 0.5)" />
  <rect x="6.5" y="0.5" width="3" height="3" transform="rotate(90 6.5 0.5)" />
  <rect x="36.5" y="3.5" width="3" height="3" transform="rotate(90 36.5 3.5)" />
  <rect x="9.5" y="6.5" width="3" height="3" transform="rotate(90 9.5 6.5)" />
  <rect x="9.5" y="3.5" width="3" height="3" transform="rotate(90 9.5 3.5)" />
  <rect x="9.5" y="9.5" width="3" height="3" transform="rotate(90 9.5 9.5)" />
  <rect x="30.5" y="6.5" width="3" height="3" transform="rotate(90 30.5 6.5)" />
  <rect x="30.5" y="3.5" width="3" height="3" transform="rotate(90 30.5 3.5)" />
  <rect x="30.5" y="9.5" width="3" height="3" transform="rotate(90 30.5 9.5)" />
  <rect x="24.5" y="6.5" width="3" height="3" transform="rotate(90 24.5 6.5)" />
  <rect x="24.5" y="3.5" width="3" height="3" transform="rotate(90 24.5 3.5)" />
  <rect x="24.5" y="9.5" width="3" height="3" transform="rotate(90 24.5 9.5)" />
  <rect x="30.5" y="12.5" width="3" height="3" transform="rotate(90 30.5 12.5)" />
  <rect x="27.5" y="12.5" width="3" height="3" transform="rotate(90 27.5 12.5)" />
  <rect x="24.5" y="12.5" width="3" height="3" transform="rotate(90 24.5 12.5)" />
  <rect x="21.5" y="12.5" width="3" height="3" transform="rotate(90 21.5 12.5)" />
  <rect x="18.5" y="12.5" width="3" height="3" transform="rotate(90 18.5 12.5)" />
  <rect x="15.5" y="12.5" width="3" height="3" transform="rotate(90 15.5 12.5)" />
  <rect x="12.5" y="12.5" width="3" height="3" transform="rotate(90 12.5 12.5)" />
  <rect x="9.5" y="12.5" width="3" height="3" transform="rotate(90 9.5 12.5)" />
  <rect x="33.5" y="21.5" width="3" height="3" transform="rotate(90 33.5 21.5)" />
  <rect x="30.5" y="21.5" width="3" height="3" transform="rotate(90 30.5 21.5)" />
  <rect x="27.5" y="21.5" width="3" height="3" transform="rotate(90 27.5 21.5)" />
  <rect x="24.5" y="21.5" width="3" height="3" transform="rotate(90 24.5 21.5)" />
  <rect x="21.5" y="21.5" width="3" height="3" transform="rotate(90 21.5 21.5)" />
  <rect x="18.5" y="21.5" width="3" height="3" transform="rotate(90 18.5 21.5)" />
  <rect x="15.5" y="21.5" width="3" height="3" transform="rotate(90 15.5 21.5)" />
  <rect x="12.5" y="21.5" width="3" height="3" transform="rotate(90 12.5 21.5)" />
  <rect x="9.5" y="21.5" width="3" height="3" transform="rotate(90 9.5 21.5)" />
  <rect x="33.5" y="24.5" width="3" height="3" transform="rotate(90 33.5 24.5)" />
  <rect x="9.5" y="24.5" width="3" height="3" transform="rotate(90 9.5 24.5)" />
  <rect x="33.5" y="27.5" width="3" height="3" transform="rotate(90 33.5 27.5)" />
  <rect x="9.5" y="27.5" width="3" height="3" transform="rotate(90 9.5 27.5)" />
  <rect x="33.5" y="30.5" width="3" height="3" transform="rotate(90 33.5 30.5)" />
  <rect x="9.5" y="30.5" width="3" height="3" transform="rotate(90 9.5 30.5)" />
  <rect x="9.5" y="33.5" width="3" height="3" transform="rotate(90 9.5 33.5)" />
  <rect x="33.5" y="33.5" width="3" height="3" transform="rotate(90 33.5 33.5)" />
  <rect x="36.5" y="36.5" width="3" height="3" transform="rotate(90 36.5 36.5)" />
  <rect x="33.5" y="36.5" width="3" height="3" transform="rotate(90 33.5 36.5)" />
  <rect x="30.5" y="36.5" width="3" height="3" transform="rotate(90 30.5 36.5)" />
  <rect x="27.5" y="36.5" width="3" height="3" transform="rotate(90 27.5 36.5)" />
  <rect x="24.5" y="36.5" width="3" height="3" transform="rotate(90 24.5 36.5)" />
  <rect x="21.5" y="36.5" width="3" height="3" transform="rotate(90 21.5 36.5)" />
  <rect x="18.5" y="36.5" width="3" height="3" transform="rotate(90 18.5 36.5)" />
  <rect x="15.5" y="36.5" width="3" height="3" transform="rotate(90 15.5 36.5)" />
  <rect x="12.5" y="36.5" width="3" height="3" transform="rotate(90 12.5 36.5)" />
  <rect x="9.5" y="36.5" width="3" height="3" transform="rotate(90 9.5 36.5)" />
  <rect x="6.5" y="36.5" width="3" height="3" transform="rotate(90 6.5 36.5)" />
  <rect x="39.5" y="39.5" width="3" height="3" transform="rotate(-180 39.5 39.5)" />
  <rect x="39.5" y="36.5" width="3" height="3" transform="rotate(-180 39.5 36.5)" />
  <rect x="39.5" y="33.5" width="3" height="3" transform="rotate(-180 39.5 33.5)" />
  <rect x="39.5" y="30.5" width="3" height="3" transform="rotate(-180 39.5 30.5)" />
  <rect x="39.5" y="27.5" width="3" height="3" transform="rotate(-180 39.5 27.5)" />
  <rect x="39.5" y="24.5" width="3" height="3" transform="rotate(-180 39.5 24.5)" />
  <rect x="39.5" y="21.5" width="3" height="3" transform="rotate(-180 39.5 21.5)" />
  <rect x="39.5" y="18.5" width="3" height="3" transform="rotate(-180 39.5 18.5)" />
  <rect x="39.5" y="15.5" width="3" height="3" transform="rotate(-180 39.5 15.5)" />
  <rect x="39.5" y="12.5" width="3" height="3" transform="rotate(-180 39.5 12.5)" />
  <rect x="39.5" y="9.5" width="3" height="3" transform="rotate(-180 39.5 9.5)" />
</symbol>

<symbol id="floppy1">
  <rect x="0.5" width="2.15385" height="2.15385" />
  <rect x="0.5" y="2.15396" width="2.15385" height="2.15385" />
  <rect x="0.5" y="4.30762" width="2.15385" height="2.15385" />
  <rect x="0.5" y="6.46158" width="2.15385" height="2.15385" />
  <rect x="0.5" y="8.61523" width="2.15385" height="2.15385" />
  <rect x="0.5" y="10.7692" width="2.15385" height="2.15385" />
  <rect x="0.5" y="12.9232" width="2.15385" height="2.15385" />
  <rect x="0.5" y="15.0768" width="2.15385" height="2.15385" />
  <rect x="0.5" y="17.2308" width="2.15385" height="2.15385" />
  <rect x="0.5" y="19.3848" width="2.15385" height="2.15385" />
  <rect x="0.5" y="21.5384" width="2.15385" height="2.15385" />
  <rect x="0.5" y="23.6924" width="2.15385" height="2.15385" />
  <rect x="0.5" y="25.846" width="2.15385" height="2.15385" />
  <rect x="24.1927" width="2.15385" height="2.15385" transform="rotate(90 24.1927 0)" />
  <rect x="22.0391" width="2.15385" height="2.15385" transform="rotate(90 22.0391 0)" />
  <rect x="19.8842" width="2.15385" height="2.15385" transform="rotate(90 19.8842 0)" />
  <rect x="17.7305" width="2.15385" height="2.15385" transform="rotate(90 17.7305 0)" />
  <rect x="15.5768" width="2.15385" height="2.15385" transform="rotate(90 15.5768 0)" />
  <rect x="13.4232" width="2.15385" height="2.15385" transform="rotate(90 13.4232 0)" />
  <rect x="11.2695" width="2.15385" height="2.15385" transform="rotate(90 11.2695 0)" />
  <rect x="9.11584" width="2.15385" height="2.15385" transform="rotate(90 9.11584 0)" />
  <rect x="6.96094" width="2.15385" height="2.15385" transform="rotate(90 6.96094 0)" />
  <rect x="4.80725" width="2.15385" height="2.15385" transform="rotate(90 4.80725 0)" />
  <rect x="26.3463" y="2.15396" width="2.15385" height="2.15385" transform="rotate(90 26.3463 2.15396)" />
  <rect x="6.96094" y="4.30762" width="2.15385" height="2.15385" transform="rotate(90 6.96094 4.30762)" />
  <rect x="6.96094" y="2.15396" width="2.15385" height="2.15385" transform="rotate(90 6.96094 2.15396)" />
  <rect x="6.96094" y="6.46158" width="2.15385" height="2.15385" transform="rotate(90 6.96094 6.46158)" />
  <rect x="22.0391" y="4.30762" width="2.15385" height="2.15385" transform="rotate(90 22.0391 4.30762)" />
  <rect x="22.0391" y="2.15396" width="2.15385" height="2.15385" transform="rotate(90 22.0391 2.15396)" />
  <rect x="22.0391" y="6.46158" width="2.15385" height="2.15385" transform="rotate(90 22.0391 6.46158)" />
  <rect x="17.7305" y="4.30762" width="2.15385" height="2.15385" transform="rotate(90 17.7305 4.30762)" />
  <rect x="17.7305" y="2.15396" width="2.15385" height="2.15385" transform="rotate(90 17.7305 2.15396)" />
  <rect x="17.7305" y="6.46158" width="2.15385" height="2.15385" transform="rotate(90 17.7305 6.46158)" />
  <rect x="22.0391" y="8.61523" width="2.15385" height="2.15385" transform="rotate(90 22.0391 8.61523)" />
  <rect x="19.8842" y="8.61523" width="2.15385" height="2.15385" transform="rotate(90 19.8842 8.61523)" />
  <rect x="17.7305" y="8.61523" width="2.15385" height="2.15385" transform="rotate(90 17.7305 8.61523)" />
  <rect x="15.5768" y="8.61523" width="2.15385" height="2.15385" transform="rotate(90 15.5768 8.61523)" />
  <rect x="13.4232" y="8.61523" width="2.15385" height="2.15385" transform="rotate(90 13.4232 8.61523)" />
  <rect x="11.2695" y="8.61523" width="2.15385" height="2.15385" transform="rotate(90 11.2695 8.61523)" />
  <rect x="9.11584" y="8.61523" width="2.15385" height="2.15385" transform="rotate(90 9.11584 8.61523)" />
  <rect x="6.96094" y="8.61523" width="2.15385" height="2.15385" transform="rotate(90 6.96094 8.61523)" />
  <rect x="24.1927" y="15.0768" width="2.15385" height="2.15385" transform="rotate(90 24.1927 15.0768)" />
  <rect x="22.0391" y="15.0768" width="2.15385" height="2.15385" transform="rotate(90 22.0391 15.0768)" />
  <rect x="19.8842" y="15.0768" width="2.15385" height="2.15385" transform="rotate(90 19.8842 15.0768)" />
  <rect x="17.7305" y="15.0768" width="2.15385" height="2.15385" transform="rotate(90 17.7305 15.0768)" />
  <rect x="15.5768" y="15.0768" width="2.15385" height="2.15385" transform="rotate(90 15.5768 15.0768)" />
  <rect x="13.4232" y="15.0768" width="2.15385" height="2.15385" transform="rotate(90 13.4232 15.0768)" />
  <rect x="11.2695" y="15.0768" width="2.15385" height="2.15385" transform="rotate(90 11.2695 15.0768)" />
  <rect x="9.11584" y="15.0768" width="2.15385" height="2.15385" transform="rotate(90 9.11584 15.0768)" />
  <rect x="6.96094" y="15.0768" width="2.15385" height="2.15385" transform="rotate(90 6.96094 15.0768)" />
  <rect x="24.1927" y="17.2308" width="2.15385" height="2.15385" transform="rotate(90 24.1927 17.2308)" />
  <rect x="6.96094" y="17.2308" width="2.15385" height="2.15385" transform="rotate(90 6.96094 17.2308)" />
  <rect x="24.1927" y="19.3848" width="2.15385" height="2.15385" transform="rotate(90 24.1927 19.3848)" />
  <rect x="6.96094" y="19.3848" width="2.15385" height="2.15385" transform="rotate(90 6.96094 19.3848)" />
  <rect x="24.1927" y="21.5384" width="2.15385" height="2.15385" transform="rotate(90 24.1927 21.5384)" />
  <rect x="6.96094" y="21.5384" width="2.15385" height="2.15385" transform="rotate(90 6.96094 21.5384)" />
  <rect x="6.96094" y="23.6924" width="2.15385" height="2.15385" transform="rotate(90 6.96094 23.6924)" />
  <rect x="24.1927" y="23.6924" width="2.15385" height="2.15385" transform="rotate(90 24.1927 23.6924)" />
  <rect x="26.3463" y="25.846" width="2.15385" height="2.15385" transform="rotate(90 26.3463 25.846)" />
  <rect x="24.1927" y="25.846" width="2.15385" height="2.15385" transform="rotate(90 24.1927 25.846)" />
  <rect x="22.0391" y="25.846" width="2.15385" height="2.15385" transform="rotate(90 22.0391 25.846)" />
  <rect x="19.8842" y="25.846" width="2.15385" height="2.15385" transform="rotate(90 19.8842 25.846)" />
  <rect x="17.7305" y="25.846" width="2.15385" height="2.15385" transform="rotate(90 17.7305 25.846)" />
  <rect x="15.5768" y="25.846" width="2.15385" height="2.15385" transform="rotate(90 15.5768 25.846)" />
  <rect x="13.4232" y="25.846" width="2.15385" height="2.15385" transform="rotate(90 13.4232 25.846)" />
  <rect x="11.2695" y="25.846" width="2.15385" height="2.15385" transform="rotate(90 11.2695 25.846)" />
  <rect x="9.11584" y="25.846" width="2.15385" height="2.15385" transform="rotate(90 9.11584 25.846)" />
  <rect x="6.96094" y="25.846" width="2.15385" height="2.15385" transform="rotate(90 6.96094 25.846)" />
  <rect x="4.80725" y="25.846" width="2.15385" height="2.15385" transform="rotate(90 4.80725 25.846)" />
  <rect x="28.5" y="28" width="2.15385" height="2.15385" transform="rotate(-180 28.5 28)" />
  <rect x="28.5" y="25.846" width="2.15385" height="2.15385" transform="rotate(-180 28.5 25.846)" />
  <rect x="28.5" y="23.6924" width="2.15385" height="2.15385" transform="rotate(-180 28.5 23.6924)" />
  <rect x="28.5" y="21.5384" width="2.15385" height="2.15385" transform="rotate(-180 28.5 21.5384)" />
  <rect x="28.5" y="19.3848" width="2.15385" height="2.15385" transform="rotate(-180 28.5 19.3848)" />
  <rect x="28.5" y="17.2308" width="2.15385" height="2.15385" transform="rotate(-180 28.5 17.2308)" />
  <rect x="28.5" y="15.0768" width="2.15385" height="2.15385" transform="rotate(-180 28.5 15.0768)" />
  <rect x="28.5" y="12.9232" width="2.15385" height="2.15385" transform="rotate(-180 28.5 12.9232)" />
  <rect x="28.5" y="10.7692" width="2.15385" height="2.15385" transform="rotate(-180 28.5 10.7692)" />
  <rect x="28.5" y="8.61523" width="2.15385" height="2.15385" transform="rotate(-180 28.5 8.61523)" />
  <rect x="28.5" y="6.46158" width="2.15385" height="2.15385" transform="rotate(-180 28.5 6.46158)" />
</svg>
</symbol>



@media (prefers-color-scheme: dark) {
path {
  fill: #00CC14;
}
}
</style>

</svg>
